<svg width="1920" height="1080" viewBox="0 0 1920 1080" fill="none" xmlns="http://www.w3.org/2000/svg">
<rect width="1920" height="1080" fill="white"/>
<circle cx="179" cy="533" r="44" fill="#0F2F5F"/>
<path d="M174.806 553.474L165.754 524H165.543C165.578 524.702 165.631 525.754 165.701 527.158C165.771 528.561 165.841 530.07 165.912 531.684C165.982 533.298 166.017 534.737 166.017 536V553.474H158.912V515.895H169.754L178.648 544.632H178.806L188.227 515.895H199.069V553.474H191.648V535.684C191.648 534.491 191.666 533.123 191.701 531.579C191.771 530.035 191.824 528.579 191.859 527.211C191.929 525.807 191.982 524.754 192.017 524.053H191.806L182.122 553.474H174.806Z" fill="white"/>
<circle cx="1535.71" cy="137.705" r="22.7051" fill="#0F2F5F"/>
<path d="M1533.64 148.373L1528.97 133.163H1528.86C1528.88 133.526 1528.91 134.069 1528.94 134.793C1528.98 135.517 1529.01 136.296 1529.05 137.129C1529.09 137.962 1529.1 138.704 1529.1 139.356V148.373H1525.44V128.981H1531.03L1535.62 143.81H1535.7L1540.57 128.981H1546.16V148.373H1542.33V139.193C1542.33 138.577 1542.34 137.871 1542.36 137.074C1542.39 136.278 1542.42 135.526 1542.44 134.82C1542.48 134.096 1542.5 133.553 1542.52 133.191H1542.41L1537.42 148.373H1533.64Z" fill="white"/>
<circle cx="1193" cy="853" r="44" fill="#F1A208"/>
<path d="M1204.64 873.474H1183.01V835.895H1204.64V842.421H1190.96V850.684H1203.7V857.211H1190.96V866.895H1204.64V873.474Z" fill="white"/>
<circle cx="1536.22" cy="261.705" r="22.7051" fill="#F1A208"/>
<path d="M1542.49 272.373H1531.33V252.981H1542.49V256.349H1535.43V260.613H1542V263.98H1535.43V268.978H1542.49V272.373Z" fill="white"/>
<circle cx="487" cy="273" r="44" fill="#06A77D"/>
<path d="M485.636 293.474H477.794V255.895H499.32V262.421H485.636V272.105H498.373V278.632H485.636V293.474Z" fill="white"/>
<circle cx="1535.71" cy="199.5" r="22.7051" fill="#06A77D"/>
<path d="M1535.02 210.168H1530.97V190.776H1542.08V194.144H1535.02V199.141H1541.59V202.509H1535.02V210.168Z" fill="white"/>
<circle cx="954" cy="719" r="44" fill="#06A77D"/>
<path d="M952.636 739.474H944.794V701.895H966.32V708.421H952.636V718.105H965.373V724.632H952.636V739.474Z" fill="white"/>
<circle cx="1432" cy="719" r="44" fill="#06A77D"/>
<path d="M1430.64 739.474H1422.79V701.895H1444.32V708.421H1430.64V718.105H1443.37V724.632H1430.64V739.474Z" fill="white"/>
<circle cx="909" cy="273" r="44" fill="#06A77D"/>
<path d="M907.636 293.474H899.794V255.895H921.32V262.421H907.636V272.105H920.373V278.632H907.636V293.474Z" fill="white"/>
<path d="M1787.83 535.828C1789.39 534.266 1789.39 531.734 1787.83 530.172L1762.37 504.716C1760.81 503.154 1758.28 503.154 1756.72 504.716C1755.15 506.278 1755.15 508.81 1756.72 510.373L1779.34 533L1756.72 555.627C1755.15 557.19 1755.15 559.722 1756.72 561.284C1758.28 562.846 1760.81 562.846 1762.37 561.284L1787.83 535.828ZM241 537H1785V529H241V537Z" fill="#0F2F5F"/>
<path d="M446.922 314.216C446.489 312.049 444.382 310.644 442.216 311.078L406.915 318.138C404.748 318.571 403.344 320.678 403.777 322.845C404.21 325.011 406.317 326.416 408.484 325.983L439.862 319.707L446.138 351.085C446.571 353.252 448.678 354.656 450.845 354.223C453.011 353.79 454.416 351.683 453.982 349.516L446.922 314.216ZM326.328 497.219L330.614 490.79L323.958 486.353L319.672 492.781L326.328 497.219ZM339.185 477.933L347.757 465.076L341.1 460.638L332.529 473.495L339.185 477.933ZM356.328 452.219L364.9 439.362L358.243 434.924L349.672 447.781L356.328 452.219ZM373.471 426.505L382.042 413.647L375.386 409.21L366.815 422.067L373.471 426.505ZM390.614 400.79L399.185 387.933L392.529 383.495L383.958 396.353L390.614 400.79ZM407.757 375.076L416.328 362.219L409.672 357.781L401.1 370.638L407.757 375.076ZM424.9 349.362L433.471 336.505L426.815 332.067L418.243 344.924L424.9 349.362ZM442.042 323.647L446.328 317.219L439.672 312.781L435.386 319.21L442.042 323.647Z" fill="#969696"/>
<path d="M654.922 495.784C654.489 497.951 652.382 499.356 650.216 498.922L614.915 491.862C612.748 491.429 611.344 489.322 611.777 487.155C612.21 484.989 614.317 483.584 616.484 484.017L647.862 490.293L654.138 458.915C654.571 456.748 656.678 455.344 658.845 455.777C661.011 456.21 662.416 458.317 661.982 460.484L654.922 495.784ZM534.328 312.781L538.614 319.21L531.958 323.647L527.672 317.219L534.328 312.781ZM547.185 332.067L555.757 344.924L549.1 349.362L540.529 336.505L547.185 332.067ZM564.328 357.781L572.9 370.638L566.243 375.076L557.672 362.219L564.328 357.781ZM581.471 383.495L590.042 396.353L583.386 400.79L574.815 387.933L581.471 383.495ZM598.614 409.21L607.185 422.067L600.529 426.505L591.958 413.647L598.614 409.21ZM615.757 434.924L624.328 447.781L617.672 452.219L609.1 439.362L615.757 434.924ZM632.9 460.638L641.471 473.495L634.815 477.933L626.243 465.076L632.9 460.638ZM650.042 486.353L654.328 492.781L647.672 497.219L643.386 490.79L650.042 486.353Z" fill="#969696"/>
<path d="M868.922 314.216C868.489 312.049 866.382 310.644 864.216 311.078L828.915 318.138C826.748 318.571 825.344 320.678 825.777 322.845C826.21 325.011 828.317 326.416 830.484 325.983L861.862 319.707L868.138 351.085C868.571 353.252 870.678 354.656 872.845 354.223C875.011 353.79 876.416 351.683 875.982 349.516L868.922 314.216ZM748.328 497.219L752.614 490.79L745.958 486.353L741.672 492.781L748.328 497.219ZM761.185 477.933L769.757 465.076L763.1 460.638L754.529 473.495L761.185 477.933ZM778.328 452.219L786.9 439.362L780.243 434.924L771.672 447.781L778.328 452.219ZM795.471 426.505L804.042 413.647L797.386 409.21L788.815 422.067L795.471 426.505ZM812.614 400.79L821.185 387.933L814.529 383.495L805.958 396.353L812.614 400.79ZM829.757 375.076L838.328 362.219L831.672 357.781L823.1 370.638L829.757 375.076ZM846.9 349.362L855.471 336.505L848.815 332.067L840.243 344.924L846.9 349.362ZM864.042 323.647L868.328 317.219L861.672 312.781L857.386 319.21L864.042 323.647Z" fill="#969696"/>
<path d="M1076.92 495.784C1076.49 497.951 1074.38 499.356 1072.22 498.922L1036.91 491.862C1034.75 491.429 1033.34 489.322 1033.78 487.155C1034.21 484.989 1036.32 483.584 1038.48 484.017L1069.86 490.293L1076.14 458.915C1076.57 456.748 1078.68 455.344 1080.84 455.777C1083.01 456.21 1084.42 458.317 1083.98 460.484L1076.92 495.784ZM956.328 312.781L960.614 319.21L953.958 323.647L949.672 317.219L956.328 312.781ZM969.185 332.067L977.757 344.924L971.1 349.362L962.529 336.505L969.185 332.067ZM986.328 357.781L994.9 370.638L988.243 375.076L979.672 362.219L986.328 357.781ZM1003.47 383.495L1012.04 396.353L1005.39 400.79L996.815 387.933L1003.47 383.495ZM1020.61 409.21L1029.19 422.067L1022.53 426.505L1013.96 413.647L1020.61 409.21ZM1037.76 434.924L1046.33 447.781L1039.67 452.219L1031.1 439.362L1037.76 434.924ZM1054.9 460.638L1063.47 473.495L1056.81 477.933L1048.24 465.076L1054.9 460.638ZM1072.04 486.353L1076.33 492.781L1069.67 497.219L1065.39 490.79L1072.04 486.353Z" fill="#969696"/>
<path d="M1190.17 797.828C1191.73 799.391 1194.27 799.391 1195.83 797.828L1221.28 772.373C1222.85 770.81 1222.85 768.278 1221.28 766.716C1219.72 765.154 1217.19 765.154 1215.63 766.716L1193 789.343L1170.37 766.716C1168.81 765.154 1166.28 765.154 1164.72 766.716C1163.15 768.278 1163.15 770.81 1164.72 772.373L1190.17 797.828ZM1189 561V569.357H1197V561H1189ZM1189 586.071V602.786H1197V586.071H1189ZM1189 619.5V636.214H1197V619.5H1189ZM1189 652.929V669.643H1197V652.929H1189ZM1189 686.357V703.071H1197V686.357H1189ZM1189 719.786V736.5H1197V719.786H1189ZM1189 753.214V769.929H1197V753.214H1189ZM1189 786.643V795H1197V786.643H1189Z" fill="#969696"/>
<path d="M1009.09 722.606C1006.94 723.11 1005.6 725.262 1006.11 727.413L1014.33 762.462C1014.83 764.613 1016.98 765.948 1019.13 765.443C1021.28 764.939 1022.62 762.787 1022.11 760.636L1014.81 729.481L1045.96 722.175C1048.11 721.67 1049.45 719.518 1048.94 717.367C1048.44 715.216 1046.29 713.882 1044.14 714.386L1009.09 722.606ZM1007.89 729.9L1014.87 734.225L1019.08 727.425L1012.11 723.1L1007.89 729.9ZM1028.82 742.875L1042.77 751.525L1046.98 744.726L1033.03 736.075L1028.82 742.875ZM1056.72 760.175L1070.67 768.825L1074.88 762.026L1060.93 753.375L1056.72 760.175ZM1084.62 777.475L1098.57 786.125L1102.78 779.325L1088.83 770.675L1084.62 777.475ZM1112.52 794.774L1126.47 803.424L1130.68 796.625L1116.73 787.975L1112.52 794.774ZM1140.42 812.074L1147.39 816.399L1151.61 809.601L1144.63 805.275L1140.42 812.074Z" fill="#969696"/>
<path d="M1376.41 722.606C1378.56 723.11 1379.9 725.262 1379.39 727.413L1371.17 762.462C1370.67 764.613 1368.52 765.948 1366.37 765.443C1364.22 764.939 1362.88 762.787 1363.39 760.636L1370.69 729.481L1339.54 722.175C1337.39 721.67 1336.05 719.518 1336.56 717.367C1337.06 715.216 1339.21 713.882 1341.36 714.386L1376.41 722.606ZM1377.61 729.9L1370.63 734.225L1366.42 727.425L1373.39 723.1L1377.61 729.9ZM1356.68 742.875L1342.73 751.525L1338.52 744.726L1352.47 736.075L1356.68 742.875ZM1328.78 760.175L1314.83 768.825L1310.62 762.026L1324.57 753.375L1328.78 760.175ZM1300.88 777.475L1286.93 786.125L1282.72 779.325L1296.67 770.675L1300.88 777.475ZM1272.98 794.774L1259.03 803.424L1254.82 796.625L1268.77 787.975L1272.98 794.774ZM1245.08 812.074L1238.11 816.399L1233.89 809.601L1240.87 805.275L1245.08 812.074Z" fill="#969696"/>
<path d="M1131.47 866.38C1133.61 865.843 1134.92 863.671 1134.38 861.528L1125.63 826.607C1125.1 824.464 1122.92 823.162 1120.78 823.699C1118.64 824.236 1117.34 826.408 1117.87 828.551L1125.65 859.592L1094.61 867.368C1092.46 867.904 1091.16 870.077 1091.7 872.22C1092.24 874.363 1094.41 875.665 1096.55 875.128L1131.47 866.38ZM972.444 772.431L978.944 776.327L983.056 769.465L976.556 765.569L972.444 772.431ZM991.944 784.118L1004.94 791.91L1009.06 785.048L996.056 777.257L991.944 784.118ZM1017.94 799.702L1030.94 807.493L1035.06 800.632L1022.06 792.84L1017.94 799.702ZM1043.94 815.285L1056.94 823.077L1061.06 816.215L1048.06 808.423L1043.94 815.285ZM1069.94 830.868L1082.94 838.66L1087.06 831.798L1074.06 824.007L1069.94 830.868ZM1095.94 846.452L1108.94 854.243L1113.06 847.382L1100.06 839.59L1095.94 846.452ZM1121.94 862.035L1128.44 865.931L1132.56 859.069L1126.06 855.173L1121.94 862.035Z" fill="#969696"/>
<path d="M1254.03 866.38C1251.89 865.843 1250.58 863.671 1251.12 861.528L1259.87 826.607C1260.4 824.464 1262.58 823.162 1264.72 823.699C1266.86 824.236 1268.16 826.408 1267.63 828.551L1259.85 859.592L1290.89 867.368C1293.04 867.904 1294.34 870.077 1293.8 872.22C1293.26 874.363 1291.09 875.665 1288.95 875.128L1254.03 866.38ZM1413.06 772.431L1406.56 776.327L1402.44 769.465L1408.94 765.569L1413.06 772.431ZM1393.56 784.118L1380.56 791.91L1376.44 785.048L1389.44 777.257L1393.56 784.118ZM1367.56 799.702L1354.56 807.493L1350.44 800.632L1363.44 792.84L1367.56 799.702ZM1341.56 815.285L1328.56 823.077L1324.44 816.215L1337.44 808.423L1341.56 815.285ZM1315.56 830.868L1302.56 838.66L1298.44 831.798L1311.44 824.007L1315.56 830.868ZM1289.56 846.452L1276.56 854.243L1272.44 847.382L1285.44 839.59L1289.56 846.452ZM1263.56 862.035L1257.06 865.931L1252.94 859.069L1259.44 855.173L1263.56 862.035Z" fill="#969696"/>
<path d="M1193 964H1189V968H1193V964ZM1605 964V968H1609V964H1605ZM1607.83 558.172C1606.27 556.609 1603.73 556.609 1602.17 558.172L1576.72 583.627C1575.15 585.19 1575.15 587.722 1576.72 589.284C1578.28 590.846 1580.81 590.846 1582.37 589.284L1605 566.657L1627.63 589.284C1629.19 590.846 1631.72 590.846 1633.28 589.284C1634.85 587.722 1634.85 585.19 1633.28 583.627L1607.83 558.172ZM1189 912V918.5H1197V912H1189ZM1189 931.5V944.5H1197V931.5H1189ZM1189 957.5V964H1197V957.5H1189ZM1193 968H1200.92V960H1193V968ZM1216.77 968H1232.62V960H1216.77V968ZM1248.46 968H1264.31V960H1248.46V968ZM1280.15 968H1296V960H1280.15V968ZM1311.85 968H1327.69V960H1311.85V968ZM1343.54 968H1359.38V960H1343.54V968ZM1375.23 968H1391.08V960H1375.23V968ZM1406.92 968H1422.77V960H1406.92V968ZM1438.62 968H1454.46V960H1438.62V968ZM1470.31 968H1486.15V960H1470.31V968ZM1502 968H1517.85V960H1502V968ZM1533.69 968H1549.54V960H1533.69V968ZM1565.38 968H1581.23V960H1565.38V968ZM1597.08 968H1605V960H1597.08V968ZM1609 964V956.25H1601V964H1609ZM1609 940.75V925.25H1601V940.75H1609ZM1609 909.75V894.25H1601V909.75H1609ZM1609 878.75V863.25H1601V878.75H1609ZM1609 847.75V832.25H1601V847.75H1609ZM1609 816.75V801.25H1601V816.75H1609ZM1609 785.75V770.25H1601V785.75H1609ZM1609 754.75V739.25H1601V754.75H1609ZM1609 723.75V708.25H1601V723.75H1609ZM1609 692.75V677.25H1601V692.75H1609ZM1609 661.75V646.25H1601V661.75H1609ZM1609 630.75V615.25H1601V630.75H1609ZM1609 599.75V584.25H1601V599.75H1609ZM1609 568.75V561H1601V568.75H1609Z" fill="#969696"/>
<path d="M1590.4 145L1585.61 132.244H1585.53C1585.57 132.665 1585.6 133.235 1585.63 133.955C1585.65 134.662 1585.67 135.402 1585.67 136.177V145H1583.98V130.451H1586.69L1591.17 142.371H1591.25L1595.82 130.451H1598.51V145H1596.69V136.054C1596.69 135.348 1596.71 134.648 1596.73 133.955C1596.77 133.263 1596.81 132.699 1596.83 132.264H1596.75L1591.9 145H1590.4ZM1613.32 145L1611.57 140.497H1605.81L1604.07 145H1602.22L1607.9 130.389H1609.55L1615.22 145H1613.32ZM1611.02 138.866L1609.39 134.465C1609.35 134.356 1609.28 134.159 1609.19 133.874C1609.09 133.589 1609 133.297 1608.9 132.998C1608.82 132.685 1608.75 132.448 1608.7 132.285C1608.59 132.706 1608.47 133.12 1608.35 133.528C1608.24 133.922 1608.15 134.234 1608.07 134.465L1606.42 138.866H1611.02ZM1623.04 145H1617.78V143.94L1619.49 143.553V131.918L1617.78 131.51V130.451H1623.04V131.51L1621.33 131.918V143.553L1623.04 143.94V145ZM1639.11 145H1636.97L1629.19 132.916H1629.11C1629.13 133.392 1629.17 133.983 1629.21 134.689C1629.25 135.395 1629.27 136.122 1629.27 136.869V145H1627.58V130.451H1629.7L1637.46 142.494H1637.54C1637.53 142.276 1637.51 141.95 1637.48 141.515C1637.47 141.081 1637.45 140.612 1637.42 140.109C1637.41 139.593 1637.4 139.111 1637.4 138.663V130.451H1639.11V145ZM1651.82 130.451H1655.98C1657.78 130.451 1659.15 130.722 1660.09 131.266C1661.03 131.809 1661.5 132.74 1661.5 134.057C1661.5 134.913 1661.26 135.626 1660.78 136.197C1660.31 136.754 1659.62 137.114 1658.73 137.277V137.379C1659.34 137.488 1659.89 137.671 1660.38 137.929C1660.88 138.187 1661.27 138.554 1661.56 139.029C1661.84 139.505 1661.99 140.116 1661.99 140.863C1661.99 142.181 1661.53 143.2 1660.62 143.92C1659.73 144.64 1658.5 145 1656.93 145H1651.82V130.451ZM1653.65 136.645H1656.34C1657.58 136.645 1658.43 136.448 1658.89 136.054C1659.37 135.647 1659.6 135.049 1659.6 134.261C1659.6 133.46 1659.32 132.889 1658.75 132.549C1658.19 132.196 1657.29 132.02 1656.06 132.02H1653.65V136.645ZM1653.65 138.174V143.451H1656.59C1657.88 143.451 1658.77 143.2 1659.28 142.697C1659.78 142.195 1660.03 141.536 1660.03 140.721C1660.03 139.96 1659.77 139.349 1659.24 138.887C1658.72 138.411 1657.79 138.174 1656.44 138.174H1653.65ZM1670.82 130.451C1672.63 130.451 1673.96 130.797 1674.81 131.49C1675.68 132.169 1676.12 133.202 1676.12 134.587C1676.12 135.362 1675.97 136.007 1675.69 136.523C1675.4 137.039 1675.04 137.454 1674.59 137.766C1674.15 138.078 1673.69 138.316 1673.2 138.479L1677.2 145H1675.06L1671.53 138.989H1668.64V145H1666.8V130.451H1670.82ZM1670.72 132.04H1668.64V137.44H1670.82C1672 137.44 1672.86 137.209 1673.41 136.747C1673.95 136.272 1674.22 135.579 1674.22 134.669C1674.22 133.718 1673.94 133.045 1673.37 132.651C1672.8 132.244 1671.91 132.04 1670.72 132.04ZM1690.34 145L1688.59 140.497H1682.82L1681.09 145H1679.24L1684.92 130.389H1686.57L1692.24 145H1690.34ZM1688.04 138.866L1686.41 134.465C1686.37 134.356 1686.3 134.159 1686.2 133.874C1686.11 133.589 1686.01 133.297 1685.92 132.998C1685.84 132.685 1685.77 132.448 1685.72 132.285C1685.61 132.706 1685.49 133.12 1685.37 133.528C1685.26 133.922 1685.17 134.234 1685.08 134.465L1683.43 138.866H1688.04ZM1707.49 145H1705.35L1697.57 132.916H1697.49C1697.51 133.392 1697.55 133.983 1697.59 134.689C1697.63 135.395 1697.65 136.122 1697.65 136.869V145H1695.96V130.451H1698.08L1705.84 142.494H1705.92C1705.91 142.276 1705.89 141.95 1705.86 141.515C1705.85 141.081 1705.83 140.612 1705.8 140.109C1705.79 139.593 1705.78 139.111 1705.78 138.663V130.451H1707.49V145ZM1719.41 131.857C1717.85 131.857 1716.62 132.38 1715.72 133.426C1714.82 134.472 1714.38 135.905 1714.38 137.725C1714.38 139.532 1714.79 140.965 1715.62 142.025C1716.46 143.071 1717.72 143.594 1719.39 143.594C1720.01 143.594 1720.61 143.54 1721.18 143.431C1721.75 143.322 1722.32 143.186 1722.87 143.023V144.613C1722.33 144.817 1721.77 144.966 1721.18 145.061C1720.61 145.156 1719.92 145.204 1719.12 145.204C1717.64 145.204 1716.41 144.898 1715.41 144.287C1714.42 143.675 1713.68 142.806 1713.17 141.678C1712.68 140.551 1712.44 139.226 1712.44 137.705C1712.44 136.238 1712.7 134.947 1713.23 133.833C1713.78 132.706 1714.57 131.829 1715.62 131.205C1716.66 130.566 1717.93 130.247 1719.43 130.247C1720.96 130.247 1722.3 130.532 1723.44 131.103L1722.71 132.651C1722.26 132.448 1721.76 132.264 1721.2 132.101C1720.66 131.938 1720.06 131.857 1719.41 131.857ZM1738.91 145H1737.07V138.214H1729.61V145H1727.78V130.451H1729.61V136.605H1737.07V130.451H1738.91V145Z" fill="black"/>
<path d="M1585.81 207H1583.98V192.451H1592.11V194.06H1585.81V199.216H1591.72V200.826H1585.81V207ZM1604.41 207H1596.28V192.451H1604.41V194.06H1598.11V198.605H1604.04V200.194H1598.11V205.39H1604.41V207ZM1618.46 207L1616.71 202.497H1610.94L1609.21 207H1607.35L1613.04 192.389H1614.69L1620.35 207H1618.46ZM1616.16 200.866L1614.53 196.465C1614.49 196.356 1614.42 196.159 1614.32 195.874C1614.23 195.589 1614.13 195.297 1614.04 194.998C1613.96 194.685 1613.89 194.448 1613.83 194.285C1613.73 194.706 1613.61 195.12 1613.49 195.528C1613.38 195.922 1613.28 196.234 1613.2 196.465L1611.55 200.866H1616.16ZM1627.25 207H1625.42V194.06H1620.87V192.451H1631.77V194.06H1627.25V207ZM1646.76 192.451V201.865C1646.76 202.87 1646.56 203.78 1646.15 204.595C1645.75 205.397 1645.12 206.035 1644.28 206.511C1643.44 206.973 1642.38 207.204 1641.1 207.204C1639.28 207.204 1637.9 206.715 1636.96 205.737C1636.03 204.745 1635.56 203.441 1635.56 201.824V192.451H1637.39V201.885C1637.39 203.067 1637.7 203.984 1638.33 204.636C1638.97 205.288 1639.92 205.614 1641.2 205.614C1642.52 205.614 1643.47 205.268 1644.05 204.575C1644.65 203.869 1644.95 202.965 1644.95 201.865V192.451H1646.76ZM1656.35 192.451C1658.16 192.451 1659.49 192.797 1660.34 193.49C1661.21 194.169 1661.65 195.202 1661.65 196.587C1661.65 197.362 1661.51 198.007 1661.22 198.523C1660.94 199.039 1660.57 199.454 1660.12 199.766C1659.69 200.078 1659.22 200.316 1658.73 200.479L1662.73 207H1660.59L1657.06 200.989H1654.17V207H1652.34V192.451H1656.35ZM1656.25 194.04H1654.17V199.44H1656.35C1657.53 199.44 1658.4 199.209 1658.94 198.747C1659.48 198.272 1659.75 197.579 1659.75 196.669C1659.75 195.718 1659.47 195.045 1658.9 194.651C1658.33 194.244 1657.44 194.04 1656.25 194.04ZM1674.88 207H1666.74V192.451H1674.88V194.06H1668.58V198.605H1674.51V200.194H1668.58V205.39H1674.88V207ZM1686.82 192.451H1690.98C1692.79 192.451 1694.16 192.722 1695.1 193.266C1696.04 193.809 1696.5 194.74 1696.5 196.057C1696.5 196.913 1696.27 197.626 1695.79 198.197C1695.32 198.754 1694.63 199.114 1693.73 199.277V199.379C1694.34 199.488 1694.89 199.671 1695.38 199.929C1695.89 200.187 1696.28 200.554 1696.57 201.029C1696.85 201.505 1696.99 202.116 1696.99 202.863C1696.99 204.181 1696.54 205.2 1695.63 205.92C1694.73 206.64 1693.5 207 1691.94 207H1686.82V192.451ZM1688.66 198.645H1691.35C1692.58 198.645 1693.43 198.448 1693.9 198.054C1694.37 197.647 1694.61 197.049 1694.61 196.261C1694.61 195.46 1694.32 194.889 1693.75 194.549C1693.2 194.196 1692.3 194.02 1691.06 194.02H1688.66V198.645ZM1688.66 200.174V205.451H1691.59C1692.88 205.451 1693.78 205.2 1694.28 204.697C1694.79 204.195 1695.04 203.536 1695.04 202.721C1695.04 201.96 1694.77 201.349 1694.24 200.887C1693.73 200.411 1692.8 200.174 1691.45 200.174H1688.66ZM1705.82 192.451C1707.63 192.451 1708.96 192.797 1709.82 193.49C1710.69 194.169 1711.12 195.202 1711.12 196.587C1711.12 197.362 1710.98 198.007 1710.69 198.523C1710.41 199.039 1710.04 199.454 1709.59 199.766C1709.16 200.078 1708.7 200.316 1708.21 200.479L1712.2 207H1710.06L1706.54 200.989H1703.64V207H1701.81V192.451H1705.82ZM1705.72 194.04H1703.64V199.44H1705.82C1707.01 199.44 1707.87 199.209 1708.41 198.747C1708.96 198.272 1709.23 197.579 1709.23 196.669C1709.23 195.718 1708.94 195.045 1708.37 194.651C1707.8 194.244 1706.92 194.04 1705.72 194.04ZM1725.35 207L1723.6 202.497H1717.83L1716.1 207H1714.24L1719.93 192.389H1721.58L1727.24 207H1725.35ZM1723.04 200.866L1721.41 196.465C1721.37 196.356 1721.31 196.159 1721.21 195.874C1721.12 195.589 1721.02 195.297 1720.93 194.998C1720.84 194.685 1720.78 194.448 1720.72 194.285C1720.61 194.706 1720.5 195.12 1720.38 195.528C1720.27 195.922 1720.17 196.234 1720.09 196.465L1718.44 200.866H1723.04ZM1742.5 207H1740.36L1732.57 194.916H1732.49C1732.52 195.392 1732.55 195.983 1732.6 196.689C1732.64 197.395 1732.66 198.122 1732.66 198.869V207H1730.97V192.451H1733.08L1740.85 204.494H1740.93C1740.92 204.276 1740.9 203.95 1740.87 203.515C1740.85 203.081 1740.83 202.612 1740.81 202.109C1740.79 201.593 1740.79 201.111 1740.79 200.663V192.451H1742.5V207ZM1754.41 193.857C1752.85 193.857 1751.62 194.38 1750.73 195.426C1749.83 196.472 1749.38 197.905 1749.38 199.725C1749.38 201.532 1749.8 202.965 1750.62 204.025C1751.47 205.071 1752.72 205.594 1754.39 205.594C1755.02 205.594 1755.62 205.54 1756.19 205.431C1756.76 205.322 1757.32 205.186 1757.88 205.023V206.613C1757.34 206.817 1756.77 206.966 1756.19 207.061C1755.62 207.156 1754.93 207.204 1754.13 207.204C1752.65 207.204 1751.41 206.898 1750.42 206.287C1749.43 205.675 1748.68 204.806 1748.18 203.678C1747.69 202.551 1747.45 201.226 1747.45 199.705C1747.45 198.238 1747.71 196.947 1748.24 195.833C1748.78 194.706 1749.58 193.829 1750.62 193.205C1751.67 192.566 1752.94 192.247 1754.43 192.247C1755.97 192.247 1757.31 192.532 1758.45 193.103L1757.72 194.651C1757.27 194.448 1756.76 194.264 1756.21 194.101C1755.66 193.938 1755.07 193.857 1754.41 193.857ZM1773.91 207H1772.08V200.214H1764.62V207H1762.79V192.451H1764.62V198.605H1772.08V192.451H1773.91V207Z" fill="black"/>
<path d="M1592.11 269H1583.98V254.451H1592.11V256.06H1585.81V260.605H1591.74V262.194H1585.81V267.39H1592.11V269ZM1600.88 254.451C1602.78 254.451 1604.17 254.824 1605.04 255.571C1605.91 256.318 1606.34 257.371 1606.34 258.73C1606.34 259.531 1606.16 260.285 1605.79 260.992C1605.44 261.685 1604.84 262.248 1603.98 262.683C1603.14 263.118 1601.99 263.335 1600.54 263.335H1598.87V269H1597.03V254.451H1600.88ZM1600.72 256.02H1598.87V261.766H1600.33C1601.72 261.766 1602.75 261.542 1603.43 261.094C1604.11 260.645 1604.45 259.885 1604.45 258.811C1604.45 257.874 1604.14 257.174 1603.53 256.712C1602.93 256.251 1602 256.02 1600.72 256.02ZM1615.2 269H1609.94V267.94L1611.65 267.553V255.918L1609.94 255.51V254.451H1615.2V255.51L1613.49 255.918V267.553L1615.2 267.94V269ZM1625.97 255.857C1624.41 255.857 1623.18 256.38 1622.29 257.426C1621.39 258.472 1620.94 259.905 1620.94 261.725C1620.94 263.532 1621.36 264.965 1622.18 266.025C1623.03 267.071 1624.28 267.594 1625.95 267.594C1626.58 267.594 1627.18 267.54 1627.75 267.431C1628.32 267.322 1628.88 267.186 1629.44 267.023V268.613C1628.9 268.817 1628.33 268.966 1627.75 269.061C1627.18 269.156 1626.49 269.204 1625.69 269.204C1624.21 269.204 1622.97 268.898 1621.98 268.287C1620.99 267.675 1620.24 266.806 1619.74 265.678C1619.25 264.551 1619.01 263.226 1619.01 261.705C1619.01 260.238 1619.27 258.947 1619.8 257.833C1620.34 256.706 1621.14 255.829 1622.18 255.205C1623.23 254.566 1624.5 254.247 1625.99 254.247C1627.53 254.247 1628.87 254.532 1630.01 255.103L1629.28 256.651C1628.83 256.448 1628.32 256.264 1627.77 256.101C1627.22 255.938 1626.63 255.857 1625.97 255.857ZM1641.37 254.451H1645.53C1647.34 254.451 1648.71 254.722 1649.64 255.266C1650.58 255.809 1651.05 256.74 1651.05 258.057C1651.05 258.913 1650.81 259.626 1650.34 260.197C1649.86 260.754 1649.18 261.114 1648.28 261.277V261.379C1648.89 261.488 1649.44 261.671 1649.93 261.929C1650.43 262.187 1650.83 262.554 1651.11 263.029C1651.4 263.505 1651.54 264.116 1651.54 264.863C1651.54 266.181 1651.08 267.2 1650.17 267.92C1649.28 268.64 1648.05 269 1646.49 269H1641.37V254.451ZM1643.21 260.645H1645.9C1647.13 260.645 1647.98 260.448 1648.44 260.054C1648.92 259.647 1649.16 259.049 1649.16 258.261C1649.16 257.46 1648.87 256.889 1648.3 256.549C1647.74 256.196 1646.85 256.02 1645.61 256.02H1643.21V260.645ZM1643.21 262.174V267.451H1646.14C1647.43 267.451 1648.33 267.2 1648.83 266.697C1649.33 266.195 1649.58 265.536 1649.58 264.721C1649.58 263.96 1649.32 263.349 1648.79 262.887C1648.27 262.411 1647.34 262.174 1646 262.174H1643.21ZM1660.37 254.451C1662.18 254.451 1663.51 254.797 1664.37 255.49C1665.23 256.169 1665.67 257.202 1665.67 258.587C1665.67 259.362 1665.53 260.007 1665.24 260.523C1664.96 261.039 1664.59 261.454 1664.14 261.766C1663.71 262.078 1663.24 262.316 1662.76 262.479L1666.75 269H1664.61L1661.08 262.989H1658.19V269H1656.36V254.451H1660.37ZM1660.27 256.04H1658.19V261.44H1660.37C1661.55 261.44 1662.42 261.209 1662.96 260.747C1663.5 260.272 1663.77 259.579 1663.77 258.669C1663.77 257.718 1663.49 257.045 1662.92 256.651C1662.35 256.244 1661.46 256.04 1660.27 256.04ZM1679.89 269L1678.14 264.497H1672.37L1670.64 269H1668.79L1674.47 254.389H1676.12L1681.79 269H1679.89ZM1677.59 262.866L1675.96 258.465C1675.92 258.356 1675.85 258.159 1675.76 257.874C1675.66 257.589 1675.57 257.297 1675.47 256.998C1675.39 256.685 1675.32 256.448 1675.27 256.285C1675.16 256.706 1675.04 257.12 1674.92 257.528C1674.81 257.922 1674.72 258.234 1674.64 258.465L1672.99 262.866H1677.59ZM1697.05 269H1694.91L1687.12 256.916H1687.04C1687.07 257.392 1687.1 257.983 1687.14 258.689C1687.18 259.395 1687.2 260.122 1687.2 260.869V269H1685.51V254.451H1687.63L1695.39 266.494H1695.48C1695.46 266.276 1695.44 265.95 1695.41 265.515C1695.4 265.081 1695.38 264.612 1695.35 264.109C1695.34 263.593 1695.33 263.111 1695.33 262.663V254.451H1697.05V269ZM1708.96 255.857C1707.4 255.857 1706.17 256.38 1705.27 257.426C1704.38 258.472 1703.93 259.905 1703.93 261.725C1703.93 263.532 1704.34 264.965 1705.17 266.025C1706.01 267.071 1707.27 267.594 1708.94 267.594C1709.57 267.594 1710.16 267.54 1710.73 267.431C1711.3 267.322 1711.87 267.186 1712.43 267.023V268.613C1711.88 268.817 1711.32 268.966 1710.73 269.061C1710.16 269.156 1709.48 269.204 1708.68 269.204C1707.2 269.204 1705.96 268.898 1704.97 268.287C1703.98 267.675 1703.23 266.806 1702.73 265.678C1702.24 264.551 1701.99 263.226 1701.99 261.705C1701.99 260.238 1702.26 258.947 1702.79 257.833C1703.33 256.706 1704.12 255.829 1705.17 255.205C1706.22 254.566 1707.49 254.247 1708.98 254.247C1710.52 254.247 1711.85 254.532 1713 255.103L1712.26 256.651C1711.81 256.448 1711.31 256.264 1710.75 256.101C1710.21 255.938 1709.61 255.857 1708.96 255.857ZM1728.46 269H1726.62V262.214H1719.17V269H1717.33V254.451H1719.17V260.605H1726.62V254.451H1728.46V269Z" fill="black"/>
</svg>
